<svg xmlns="http://www.w3.org/2000/svg" version="1.1" xmlns:xlink="http://www.w3.org/1999/xlink" xmlns:svgjs="http://svgjs.dev/svgjs" width="1500" height="1500" viewBox="0 0 1500 1500"><rect width="1500" height="1500" fill="#000000"></rect><g transform="matrix(0.6666666666666666,0,0,0.6666666666666666,249.39393939393938,438.58569500674764)"><svg viewBox="0 0 396 247" data-background-color="#ffffff" preserveAspectRatio="xMidYMid meet" height="935" width="1500" xmlns="http://www.w3.org/2000/svg" xmlns:xlink="http://www.w3.org/1999/xlink"><g id="tight-bounds" transform="matrix(1,0,0,1,0.2400000000000091,-0.09999999999999432)"><svg viewBox="0 0 395.52 247.2" height="247.2" width="395.52"><g><svg></svg></g><g><svg viewBox="0 0 395.52 247.2" height="247.2" width="395.52"><g transform="matrix(1,0,0,1,75.54432000000001,69.96578071942446)"><svg viewBox="0 0 244.43135999999996 107.26843856115107" height="107.26843856115107" width="244.43135999999996"><g><svg viewBox="0 0 244.43135999999996 107.26843856115107" height="107.26843856115107" width="244.43135999999996"><g><svg viewBox="0 0 244.43135999999996 107.26843856115107" height="107.26843856115107" width="244.43135999999996"><g><svg viewBox="0 0 244.43135999999996 107.26843856115107" height="107.26843856115107" width="244.43135999999996"><g id="textblocktransform"><svg viewBox="0 0 244.43135999999996 107.26843856115107" height="107.26843856115107" width="244.43135999999996" id="textblock"><g><svg viewBox="0 0 244.43135999999996 107.26843856115107" height="107.26843856115107" width="244.43135999999996"><g transform="matrix(1,0,0,1,0,0)"><svg width="244.43135999999996" viewBox="2.55 -39.25 104.25 45.75" height="107.26843856115107" data-palette-color="#113f67"><path d="M50.15-30.5L50.15-30.5Q40.05-35.5 33.9-35.5 27.75-35.5 23.6-32L23.6-32Q19.65-28.65 19.65-24.8L19.65-24.8Q19.65-22.8 21.1-21.9L21.1-21.9Q23.05-20.8 24.8-20.8L24.8-20.8Q25.45-20.8 26.1-20.95L26.1-20.95Q28.4-21.5 30-22.8 31.6-24.1 31.6-24.9 31.6-25.7 32.08-26 32.55-26.3 32.55-25.8L32.55-25.8Q32.55-25.5 32.4-25.1L32.4-25.1Q31.35-21.55 27.5-20.25L27.5-20.25Q25.85-19.7 24.1-19.7 22.35-19.7 20.65-20.75L20.65-20.75Q17.45-22.55 17.45-26.25L17.45-26.25Q17.45-30.7 21.55-34.35 25.65-38 31.55-38L31.55-38Q34.45-38 37.4-37.15L37.4-37.15Q44.8-35.15 50.8-31.35L50.8-31.35Q52.35-33.05 54-33.05L54-33.05Q55.85-33.05 55.9-31.8L55.9-31.8Q55.95-31.25 55.55-31.3L55.55-31.3Q55.3-31.35 55-31.7L55-31.7Q54.6-31.85 54.25-31.85L54.25-31.85Q53.15-31.85 52-30.75L52-30.75Q55.7-28.9 60.7-27.6L60.7-27.6Q62.65-27.15 63.8-27.15 64.95-27.15 65.55-27.2L65.55-27.2Q67.75-27.45 68.4-28.85L68.4-28.85Q68.75-29.6 69.03-29.78 69.3-29.95 69.35-29.6L69.35-29.6Q69.35-29.45 69.35-29.2L69.35-29.2Q69.35-27.15 67.25-26.1L67.25-26.1Q65.95-25.45 64.8-25.45 63.65-25.45 62.3-25.68 60.95-25.9 58.8-26.6 56.65-27.3 55.3-27.9 53.95-28.5 52.65-29.15L52.65-29.15 51.25-29.85Q48.65-26.9 45.7-19.7L45.7-19.7Q44.75-17.3 44.6-16.95L44.6-16.95Q47.5-16.55 49.95-16.55 52.4-16.55 53.83-16.63 55.25-16.7 55.3-16.3L55.3-16.3Q55.35-15.2 47.85-15.2L47.85-15.2Q45.45-15.2 44-15.4L44-15.4Q40.9-6.9 37.8-2.8L37.8-2.8Q36.5-1.1 34.55 0.78 32.6 2.65 30.4 3.8L30.4 3.8Q25.45 6.5 19.35 6.5 13.25 6.5 9 3.8L9 3.8Q2.55-0.2 2.55-7.75L2.55-7.75Q2.55-10.3 3.4-13.2L3.4-13.2Q4-15.1 5.63-16.55 7.25-18 8.35-18.32 9.45-18.65 9.38-18.45 9.3-18.25 7.65-17.1L7.65-17.1Q4.4-14.75 3.8-11.3L3.8-11.3Q3.55-10.05 3.55-8.4 3.55-6.75 4.3-4.8L4.3-4.8Q6.35 0.5 12.8 3L12.8 3Q15.85 4.15 19.35 4.15 22.85 4.15 26.3 2.75 29.75 1.35 32.7-1.45L32.7-1.45Q38.45-6.9 42.2-15.55L42.2-15.55 39-15.6Q33.15-15.6 31.3-12.9L31.3-12.9Q30.85-12.35 30.58-12.63 30.3-12.9 30.5-13.35L30.5-13.35Q31.6-15.75 33.6-16.8 35.6-17.85 37.58-17.85 39.55-17.85 42.9-17.4L42.9-17.4Q44.45-21.2 46.83-25.3 49.2-29.4 50.15-30.5ZM104.3-9.6L104.3-9.6Q104.3-6.75 102.25-4.3L102.25-4.3Q99.35-0.8 94.5 0.75L94.5 0.75Q90.9 1.9 87.5 1.9L87.5 1.9Q86.25 1.9 85.05 1.75L85.05 1.75Q77.2 0.75 71.75-1.7L71.75-1.7Q66.8 1.95 61.3 1.95L61.3 1.95Q54.8 1.95 53.25-1.65L53.25-1.65Q52.9-2.5 52.9-3.65 52.9-4.8 54.05-6.1L54.05-6.1Q55.85-8.1 59.05-8.1L59.05-8.1Q61.15-8.1 62.85-7.5 64.55-6.9 67.05-5.55 69.55-4.2 70.75-3.6L70.75-3.6Q72.95-5.75 75.3-9.58 77.65-13.4 79.42-17.07 81.2-20.75 83.95-25.25 86.7-29.75 89.55-32.9L89.55-32.9 92.4-36.15Q88.45-36.85 83.7-36.85 78.95-36.85 73.25-35.6L73.25-35.6Q65.45-33.95 61.25-28.9L61.25-28.9Q58.7-25.85 58.7-23.1L58.7-23.1Q58.7-19.45 62.25-18.35L62.25-18.35Q63.5-18 64.45-18 65.4-18 66.65-18.35 67.9-18.7 69.07-19.83 70.25-20.95 70.77-22 71.3-23.05 71.3-23.58 71.3-24.1 71.8-24.1L71.8-24.1Q72.3-24.05 72.35-23.4L72.35-23.4 72.35-23.35Q71.8-19.7 68.45-17.8L68.45-17.8Q66.4-16.7 64.35-16.7L64.35-16.7 61.75-17.15Q56.45-19 56.45-24.05L56.45-24.05Q56.45-27.5 59.5-30.85L59.5-30.85Q64.4-36.35 73.9-37.7L73.9-37.7Q78.5-38.35 83.47-38.35 88.45-38.35 93.6-37.25L93.6-37.25Q95-38.45 96.05-38.85 97.1-39.25 97.27-39.25 97.45-39.25 97.5-39.2L97.5-39.2Q97.8-39.2 97.62-38.88 97.45-38.55 96.52-37.95 95.6-37.35 95.4-36.85L95.4-36.85Q102.2-35.1 105.2-31.85L105.2-31.85Q106.8-30.05 106.8-28.18 106.8-26.3 105.7-24.4L105.7-24.4Q104.25-21.9 101-20.63 97.75-19.35 94.45-19.2L94.45-19.2Q97.65-18.2 100.4-16.4L100.4-16.4Q104.3-13.85 104.3-9.6ZM86.8 0.5L86.8 0.5Q92.4 0.5 96.3-2.7L96.3-2.7Q100.55-6.1 100.55-10.05L100.55-10.05Q100.55-14.15 96.2-16.25L96.2-16.25Q94.6-17 92.27-17.73 89.95-18.45 88.52-18.95 87.1-19.45 86.9-19.9L86.9-19.9Q86.9-20.85 88.35-20.9L88.35-20.9Q89.3-20.9 91.25-20.75 93.2-20.6 94.6-20.63 96-20.65 97.97-21.63 99.95-22.6 101.35-24.15L101.35-24.15Q103.6-26.65 103.6-28.85L103.6-28.85Q103.6-33.55 94.8-35.6L94.8-35.6Q92.15-31.95 85.3-20.18 78.45-8.4 74.75-4.4L74.75-4.4 72.85-2.6Q78.5-0.25 85 0.4L85 0.4Q85.95 0.5 86.8 0.5ZM69.65-2.65L69.65-2.65Q63.8-5.45 62.25-6 60.7-6.55 59.17-6.55 57.65-6.55 56.75-5.48 55.85-4.4 55.85-3.53 55.85-2.65 56.25-1.85L56.25-1.85Q57.35 0.4 60.85 0.4L60.85 0.4Q65.6 0.4 69.65-2.65Z" opacity="1" transform="matrix(1,0,0,1,0,0)" fill="#ffffff" class="wordmark-text-0" data-fill-palette-color="primary" id="text-0"></path></svg></g></svg></g></svg></g></svg></g><g></g></svg></g></svg></g></svg></g><g><path d="M104.474 44.642A122.216 122.216 0 0 1 291.046 44.642L281.373 44.642A112.542 112.542 0 0 0 114.147 44.642L104.474 44.642M104.474 202.558A122.216 122.216 0 0 0 291.046 202.558L281.373 202.558A112.542 112.542 0 0 1 114.147 202.558L104.474 202.558" fill="#ffffff" stroke="transparent" data-fill-palette-color="tertiary"></path></g></svg></g><defs></defs></svg><rect width="395.52" height="247.2" fill="none" stroke="none" visibility="hidden"></rect></g></svg></g></svg>